<svg width="228" height="227" viewBox="0 0 228 227" fill="none" xmlns="http://www.w3.org/2000/svg">
<path d="M227.66 113.58C227.66 128.473 224.727 143.221 219.027 156.98C213.328 170.74 204.974 183.242 194.443 193.773C183.912 204.304 171.41 212.658 157.65 218.357C143.891 224.056 129.143 226.99 114.25 226.99C84.1718 226.99 55.3255 215.041 34.057 193.773C12.7885 172.504 0.839996 143.658 0.839996 113.58C0.839996 83.5017 12.7885 54.6554 34.057 33.3869C55.3255 12.1184 84.1718 0.169922 114.25 0.169922C129.143 0.169922 143.891 3.10336 157.65 8.80275C171.41 14.5021 183.912 22.8559 194.443 33.3869C204.974 43.918 213.328 56.4203 219.027 70.1798C224.727 83.9393 227.66 98.6867 227.66 113.58ZM110.23 2.30992C99.13 2.40992 88.18 4.48992 78.32 9.47992C77.7133 9.78659 77.75 9.94325 78.43 9.94992C83.97 10.0299 89.77 10.9366 95.83 12.6699C96.15 12.7566 96.42 12.6799 96.64 12.4399C100.64 8.10659 105.217 4.98659 110.37 3.07993C111.79 2.55326 111.743 2.29659 110.23 2.30992ZM109.37 17.4699L115.19 18.5199C115.67 18.6066 116.123 18.5366 116.55 18.3099C124.517 14.1366 132.44 11.3432 140.32 9.92992C140.973 9.81658 140.997 9.62326 140.39 9.34993C133.31 6.10993 126.333 3.99658 119.46 3.00992C118.6 2.88992 117.733 2.91326 116.86 3.07993C109.48 4.49993 103.317 7.7666 98.37 12.8799C98.3317 12.9202 98.3039 12.9692 98.2889 13.0227C98.2739 13.0761 98.2723 13.1325 98.2841 13.1868C98.296 13.241 98.3209 13.2915 98.3568 13.3339C98.3927 13.3763 98.4384 13.4093 98.49 13.4299L106.32 16.5999C107.307 16.9933 108.323 17.2833 109.37 17.4699ZM147.57 9.98993L148.01 8.78992C148.02 8.76499 148.024 8.73842 148.023 8.71175C148.022 8.68508 148.016 8.65886 148.005 8.63463C147.994 8.6104 147.978 8.58866 147.958 8.57068C147.938 8.5527 147.915 8.53883 147.89 8.52992L147.77 8.47992C143.372 6.87065 139.125 5.40799 135.959 4.41261C132.793 3.41723 130.966 2.97035 130.88 3.16992L130.86 3.20993C130.821 3.31031 131.212 3.56716 132.012 3.96582C132.811 4.36448 134.004 4.89711 135.52 5.53328C137.037 6.16945 138.848 6.89667 140.85 7.67339C142.853 8.4501 145.007 9.26106 147.19 10.0599L147.31 10.1099C147.335 10.1195 147.362 10.1239 147.388 10.123C147.415 10.1221 147.441 10.1159 147.465 10.1047C147.49 10.0935 147.511 10.0776 147.529 10.0579C147.547 10.0382 147.561 10.0151 147.57 9.98993ZM153.38 11.4599C153.33 11.4254 153.271 11.4047 153.21 11.3999L149.15 11.0699C149.072 11.0616 148.994 11.0798 148.927 11.1214C148.861 11.1631 148.81 11.2258 148.784 11.2996C148.757 11.3734 148.756 11.4539 148.781 11.5283C148.806 11.6027 148.855 11.6667 148.92 11.7099L162.3 21.1899C162.359 21.2298 162.429 21.2507 162.5 21.2499L166.59 21.2599C166.665 21.2608 166.739 21.2374 166.8 21.1931C166.861 21.1489 166.906 21.0862 166.928 21.0143C166.951 20.9425 166.949 20.8653 166.924 20.7943C166.9 20.7232 166.852 20.6621 166.79 20.6199L153.38 11.4599ZM140.37 11.8299C133.137 12.9566 125.927 15.3366 118.74 18.9699C118.267 19.2099 118.287 19.3933 118.8 19.5199C128.867 22.0999 138.233 25.5299 146.9 29.8099C147.071 29.8935 147.266 29.9142 147.45 29.8685C147.635 29.8228 147.798 29.7136 147.91 29.5599C150.783 25.6333 154.6 23.0766 159.36 21.8899C159.408 21.877 159.451 21.851 159.486 21.8149C159.52 21.7789 159.543 21.7341 159.554 21.6855C159.564 21.6369 159.561 21.5864 159.544 21.5395C159.528 21.4927 159.499 21.4513 159.46 21.4199C155.133 18.0199 150.517 14.9099 145.61 12.0899C143.92 11.1099 142.19 11.5499 140.37 11.8299ZM63.55 19.5699C73.4 16.9099 83.06 15.7299 93.32 15.9199C93.5933 15.9266 93.8433 15.8633 94.07 15.7299C94.33 15.5766 94.5633 15.3899 94.77 15.1699C95.2233 14.6633 95.1267 14.3066 94.48 14.0999C88.7 12.2599 82.44 11.5199 75.7 11.8799C74.16 11.9599 72.7167 12.4366 71.37 13.3099C68.4833 15.1766 65.81 17.1332 63.35 19.1799C62.8167 19.6199 62.8833 19.7499 63.55 19.5699ZM178.02 24.1699C178.493 24.3633 178.553 24.2733 178.2 23.8999C173.24 18.6666 167.317 14.9899 160.43 12.8699C157.917 12.0966 157.777 12.4066 160.01 13.7999C162.917 15.6133 165.827 17.7866 168.74 20.3199C171.36 22.5899 174.9 22.8699 178.02 24.1699ZM66.88 13.4999C60.55 15.1999 54.52 19.0099 50.02 23.5199C48.7867 24.7599 48.9833 25.0566 50.61 24.4099C53.74 23.1699 57.14 22.1299 59.62 19.9299C61.9 17.9032 64.39 15.9133 67.09 13.9599C67.8367 13.4199 67.7667 13.2666 66.88 13.4999ZM96.18 15.0899C96.1313 15.0974 96.0874 15.1234 96.0576 15.1626C96.0277 15.2018 96.0143 15.251 96.02 15.2999C96.0267 15.3999 96.05 15.4933 96.09 15.5799C96.17 15.7466 96.2967 15.8433 96.47 15.8699C97.4833 16.0566 98.49 16.2133 99.49 16.3399C100.177 16.4266 100.233 16.2766 99.66 15.8899C98.5667 15.1499 97.4067 14.8833 96.18 15.0899ZM86.88 31.5699C88.1067 26.7833 89.9533 22.3599 92.42 18.2999C92.6333 17.9533 92.5367 17.7799 92.13 17.7799C80.99 17.6533 70.3033 19.2666 60.07 22.6199C59.2567 22.8866 58.54 23.3232 57.92 23.9299C50.9467 30.7099 45.1367 38.4566 40.49 47.1699C40.4743 47.1973 40.4665 47.2283 40.4674 47.2598C40.4683 47.2912 40.4778 47.3222 40.495 47.3495C40.5122 47.3768 40.5364 47.3995 40.5654 47.4153C40.5943 47.4312 40.627 47.4397 40.66 47.4399C50.2133 47.3133 59.21 49.3399 67.65 53.5199C70.03 54.6899 71.61 54.0499 73.89 53.4799C75.0633 53.1866 76.2767 52.2766 77.53 50.7499C79.7167 48.0899 82.0233 45.4933 84.45 42.9599C84.986 42.3978 85.308 41.6689 85.36 40.8999C85.56 37.8399 86.0667 34.7299 86.88 31.5699ZM94.36 18.0899C90.5533 24.3899 88.0233 31.5566 86.77 39.5899C86.63 40.4566 86.8767 40.5833 87.51 39.9699C94.7967 32.8166 102.56 26.6666 110.8 21.5199C111.147 21.3066 111.15 21.0866 110.81 20.8599C109.117 19.7266 107.327 19.0266 105.44 18.7599C101.773 18.2399 98.2433 17.9266 94.85 17.8199C94.7525 17.8171 94.6558 17.8406 94.5697 17.888C94.4836 17.9355 94.4112 18.0051 94.36 18.0899ZM142.94 39.8099L145.38 33.2999C145.487 32.9999 145.65 32.7366 145.87 32.5099L146.29 32.0799C146.677 31.6866 146.623 31.3699 146.13 31.1299C136.583 26.4766 126.74 22.9633 116.6 20.5899C116.1 20.4699 115.66 20.6699 115.17 20.7099C114.57 20.7566 114.533 20.9266 115.06 21.2199C119.067 23.4466 123.093 26.1533 127.14 29.3399C132.373 33.4533 137.223 37.6633 141.69 41.9699C142.15 42.4166 142.48 42.3333 142.68 41.7199C142.793 41.3866 142.837 41.0433 142.81 40.6899C142.79 40.3867 142.835 40.0866 142.94 39.8099ZM86.4 51.2399C104.55 48.4399 122.8 48.2799 140.96 50.6399C141.42 50.6999 141.66 50.4966 141.68 50.0299L141.88 45.1199C141.887 44.8333 141.79 44.5833 141.59 44.3699C133.263 35.6033 123.85 28.2633 113.35 22.3499C113.137 22.2299 112.923 22.2333 112.71 22.3599C103.237 28.0399 94.5433 34.9433 86.63 43.0699C86.43 43.2766 86.3233 43.5199 86.31 43.7999L85.84 50.7199C85.8133 51.1266 86 51.2999 86.4 51.2399ZM171.11 24.0199C171.064 23.9705 171.005 23.9357 170.94 23.9199L165.15 22.7199C165.08 22.706 165.007 22.7144 164.943 22.7439C164.878 22.7735 164.824 22.8227 164.788 22.8847C164.753 22.9466 164.738 23.0181 164.745 23.089C164.753 23.16 164.782 23.2267 164.83 23.2799L181.18 41.9399C181.224 41.9919 181.284 42.0292 181.35 42.047C181.416 42.0649 181.485 42.0624 181.55 42.0399L186.33 40.3999C186.385 40.3822 186.435 40.3508 186.474 40.3086C186.513 40.2664 186.541 40.2148 186.555 40.1588C186.569 40.1028 186.569 40.0441 186.554 39.9883C186.539 39.9325 186.51 39.8814 186.47 39.8399L171.11 24.0199ZM178.57 41.8899C173.39 34.9233 167.893 28.8266 162.08 23.5999C161.895 23.4372 161.678 23.3171 161.443 23.2479C161.208 23.1788 160.961 23.1624 160.72 23.1999C155.64 23.9899 152.22 26.5599 148.85 30.1799C148.65 30.3999 148.683 30.5799 148.95 30.7199C157.397 35.1399 164.993 39.9899 171.74 45.2699C171.9 45.394 172.09 45.4725 172.291 45.4972C172.491 45.5218 172.695 45.4917 172.88 45.4099L178.26 43.0499C178.847 42.7899 178.95 42.4033 178.57 41.8899ZM183.82 34.6499C184.447 35.3499 185.107 36.0333 185.8 36.6999C186.707 37.5599 186.883 37.4299 186.33 36.3099C185.317 34.2633 184.18 32.1799 182.92 30.0599C181.2 27.1699 177.95 25.9799 174.99 25.0699C174.383 24.8833 174.313 25.0066 174.78 25.4399C178.027 28.4666 181.04 31.5366 183.82 34.6499ZM38.1 45.9999C37.6 48.2133 37.8633 48.3099 38.89 46.2899C42.6 38.9499 47.73 32.0199 53.44 25.9099C53.9867 25.3233 53.89 25.1766 53.15 25.4699C50.23 26.6199 45.67 28.3199 43.97 31.2399C41.21 35.9933 39.2533 40.9133 38.1 45.9999ZM184.566 27.3181C184.601 27.2622 184.497 27.1202 184.275 26.9235C184.054 26.7268 183.733 26.4914 183.384 26.2691C183.035 26.0469 182.687 25.8559 182.415 25.7382C182.143 25.6206 181.97 25.5859 181.934 25.6417C181.899 25.6977 182.003 25.8396 182.225 26.0363C182.446 26.2331 182.767 26.4684 183.116 26.6907C183.465 26.913 183.813 27.1039 184.085 27.2216C184.357 27.3393 184.53 27.374 184.566 27.3181ZM44.9646 26.6929C44.917 26.6359 44.7403 26.6905 44.4733 26.8447C44.2062 26.9988 43.8708 27.2398 43.5408 27.5148C43.2107 27.7898 42.913 28.0763 42.7132 28.3111C42.5134 28.5459 42.4279 28.7099 42.4754 28.7669C42.523 28.8239 42.6997 28.7693 42.9668 28.6152C43.2338 28.4611 43.5692 28.22 43.8992 27.945C44.2293 27.67 44.527 27.3836 44.7268 27.1488C44.9266 26.914 45.0121 26.75 44.9646 26.6929ZM189.64 39.4099C189.673 39.4752 189.725 39.5286 189.79 39.5626C189.854 39.5967 189.928 39.6098 190 39.5999L194.97 39.0699C195.039 39.0638 195.105 39.037 195.159 38.9932C195.213 38.9494 195.253 38.8904 195.274 38.8239C195.294 38.7573 195.294 38.6862 195.274 38.6196C195.254 38.5529 195.214 38.4939 195.16 38.4499L186.25 30.8199C186.189 30.7717 186.114 30.7451 186.036 30.7443C185.959 30.7435 185.883 30.7685 185.821 30.8155C185.759 30.8625 185.715 30.9287 185.695 31.0037C185.674 31.0787 185.68 31.1583 185.71 31.2299L189.64 39.4099ZM35.73 47.8399C36.7 42.5599 38.84 37.1399 41.29 32.5699C41.6967 31.8099 41.5433 31.6699 40.83 32.1499C31.85 38.2366 24.64 46.2199 19.2 56.0999C18.86 56.7266 18.9533 56.8033 19.48 56.3299C23.92 52.3499 29.1233 49.7399 35.09 48.4999C35.45 48.4199 35.6633 48.1999 35.73 47.8399ZM147.15 32.7699C145.48 36.2999 144.68 39.5799 143.67 43.2299C143.577 43.5766 143.653 43.8833 143.9 44.1499C146.047 46.4899 148.137 48.8233 150.17 51.1499C150.65 51.7033 151.25 52.0866 151.97 52.2999C153.723 52.8066 155.367 53.1133 156.9 53.2199C157.287 53.2466 157.65 53.1699 157.99 52.9899L170.34 46.4799C170.366 46.4664 170.388 46.4468 170.404 46.4229C170.421 46.399 170.431 46.3717 170.434 46.3436C170.437 46.3155 170.433 46.2875 170.422 46.2623C170.41 46.2372 170.393 46.2157 170.37 46.1999C163.21 40.8133 155.923 36.1833 148.51 32.3099C147.897 31.9966 147.443 32.1499 147.15 32.7699ZM199.13 54.3799C199.208 54.4922 199.316 54.5794 199.443 54.6306C199.569 54.6819 199.708 54.6951 199.842 54.6685C199.976 54.642 200.099 54.5768 200.197 54.4811C200.294 54.3854 200.361 54.2634 200.39 54.1299L202.1 46.4699C202.124 46.3659 202.124 46.2577 202.1 46.1537C202.075 46.0497 202.028 45.9526 201.96 45.8699L198.16 41.2699C198.095 41.1924 198.014 41.13 197.922 41.0868C197.831 41.0436 197.731 41.0208 197.63 41.0199L191 40.9399C190.872 40.9389 190.745 40.9732 190.635 41.0391C190.525 41.105 190.435 41.1999 190.375 41.3134C190.315 41.427 190.288 41.5548 190.296 41.6829C190.304 41.8111 190.347 41.9346 190.42 42.0399L199.13 54.3799ZM191.35 53.1199C190.837 49.7999 190.11 46.7133 189.17 43.8599C188.93 43.1333 188.547 42.4999 188.02 41.9599C187.884 41.824 187.714 41.7278 187.529 41.682C187.343 41.6361 187.15 41.6423 186.97 41.6999L182.45 43.1599C181.983 43.3066 181.883 43.5833 182.15 43.9899C184.59 47.7299 187 51.6099 189.02 55.6699C190.007 57.6499 190.953 59.5433 191.86 61.3499C191.894 61.4254 191.954 61.4851 192.029 61.5181C192.104 61.5511 192.189 61.5553 192.268 61.5297C192.347 61.5042 192.415 61.4507 192.46 61.3791C192.504 61.3074 192.522 61.2225 192.51 61.1399C192.17 58.6199 191.783 55.9466 191.35 53.1199ZM179.68 43.8999L173.74 46.4099C173.713 46.4213 173.689 46.4397 173.671 46.4631C173.653 46.4865 173.641 46.5142 173.637 46.5435C173.633 46.5728 173.637 46.6026 173.648 46.63C173.659 46.6575 173.677 46.6816 173.7 46.6999C179.093 51.0666 183.987 55.6199 188.38 60.3599C189.753 61.8399 189.997 61.6699 189.11 59.8499C186.657 54.8299 183.66 49.5599 180.12 44.0399C180.076 43.9672 180.007 43.9128 179.926 43.8871C179.845 43.8613 179.758 43.8659 179.68 43.8999ZM84.78 45.5999C84.7854 45.5305 84.7687 45.461 84.7323 45.4016C84.6959 45.3422 84.6416 45.2959 84.5772 45.2692C84.5128 45.2426 84.4416 45.237 84.3739 45.2533C84.3061 45.2696 84.2452 45.3069 84.2 45.3599L78.46 51.8299C78.4127 51.8806 78.3825 51.9449 78.3737 52.0137C78.365 52.0825 78.3782 52.1524 78.4114 52.2132C78.4446 52.2741 78.4962 52.323 78.5588 52.3529C78.6213 52.3829 78.6917 52.3923 78.76 52.3799L84.25 51.4699C84.3253 51.4585 84.3943 51.4214 84.4453 51.3649C84.4963 51.3084 84.5262 51.236 84.53 51.1599L84.78 45.5999ZM147.82 51.5899C147.891 51.6039 147.965 51.5948 148.03 51.564C148.096 51.5333 148.15 51.4824 148.184 51.4188C148.219 51.3552 148.232 51.2822 148.223 51.2104C148.213 51.1387 148.18 51.072 148.13 51.0199L143.8 46.4299C143.754 46.3796 143.693 46.3445 143.627 46.3291C143.56 46.3137 143.49 46.3187 143.427 46.3436C143.363 46.3684 143.308 46.4119 143.269 46.4683C143.231 46.5248 143.21 46.5915 143.21 46.6599L143.27 50.5499C143.271 50.6289 143.3 50.705 143.351 50.7652C143.402 50.8254 143.472 50.866 143.55 50.8799L147.82 51.5899ZM160.13 53.9899C170.03 56.6399 179.39 59.7499 188.51 63.9599C189.257 64.3066 189.353 64.1766 188.8 63.5699C183.733 58.0433 178.243 52.7666 172.33 47.7399C172.163 47.6005 171.96 47.5128 171.744 47.4879C171.529 47.4631 171.312 47.502 171.12 47.5999L160.05 53.2299C159.41 53.5499 159.437 53.8033 160.13 53.9899ZM205.88 65.7299C205.922 65.7984 205.979 65.8565 206.046 65.8998C206.114 65.9431 206.19 65.9705 206.27 65.9799L214.48 67.0899C214.58 67.1046 214.681 67.0906 214.773 67.0496C214.865 67.0086 214.944 66.9422 214.999 66.8583C215.055 66.7744 215.085 66.6764 215.087 66.5757C215.089 66.475 215.062 66.3759 215.01 66.2899L204.61 48.6399C204.559 48.5521 204.483 48.4809 204.392 48.435C204.301 48.389 204.199 48.3701 204.098 48.3807C203.997 48.3912 203.9 48.4307 203.821 48.4944C203.742 48.5581 203.682 48.6434 203.65 48.7399L200.85 56.7399C200.825 56.8118 200.815 56.8884 200.822 56.9643C200.829 57.0402 200.852 57.1138 200.89 57.1799L205.88 65.7299ZM194.51 64.3899C194.623 64.3499 194.733 64.2966 194.84 64.2299C194.9 64.1899 194.95 64.1399 194.99 64.0799L198.45 57.7799C198.623 57.4599 198.607 57.1466 198.4 56.8399L193.75 49.9399C192.323 47.8133 191.91 47.9933 192.51 50.4799C193.543 54.7666 194.08 59.3066 194.12 64.0999C194.127 64.3733 194.257 64.4699 194.51 64.3899ZM38.72 50.2399C37.77 52.9699 35.91 55.3899 35.72 58.3499C35.5267 61.3166 35.45 64.1833 35.49 66.9499C35.491 67.0104 35.5077 67.0695 35.5384 67.1216C35.569 67.1737 35.6127 67.217 35.6651 67.2472C35.7174 67.2774 35.7767 67.2935 35.8372 67.294C35.8976 67.2945 35.9572 67.2793 36.01 67.2499C45.8433 61.9566 56.1833 57.9233 67.03 55.1499C67.49 55.0299 67.5067 54.8699 67.08 54.6699C58.3933 50.5099 49.4867 48.6266 40.36 49.0199C39.9977 49.0344 39.6477 49.1584 39.3553 49.3759C39.0629 49.5934 38.8416 49.8944 38.72 50.2399ZM13.98 67.2299C11.71 73.9999 10.32 81.0999 10.18 88.0099C10.1733 88.4699 10.31 88.5166 10.59 88.1499C15.3033 81.9899 21.0733 76.7166 27.9 72.3299C28.4858 71.9563 28.9104 71.3746 29.09 70.6999C30.27 66.2066 31.8133 61.7566 33.72 57.3499C34.67 55.1599 34.5 53.0999 35.13 50.9199C35.3367 50.1866 35.0733 49.9199 34.34 50.1199C25.68 52.4899 16.89 58.5399 13.98 67.2299ZM142.73 61.4599C142.43 58.5399 141.43 55.6799 141.99 52.7299C142.004 52.6548 142.003 52.5776 141.986 52.503C141.97 52.4284 141.938 52.358 141.893 52.2961C141.848 52.2343 141.791 52.1823 141.725 52.1434C141.659 52.1045 141.586 52.0795 141.51 52.0699C123.43 49.6166 104.943 49.8066 86.05 52.6399C85.9899 52.649 85.9326 52.6716 85.8827 52.706C85.8328 52.7404 85.7916 52.7857 85.7625 52.8381C85.7333 52.8906 85.717 52.9488 85.7148 53.0081C85.7127 53.0675 85.7247 53.1263 85.75 53.1799C85.95 53.6199 86.0667 54.0599 86.1 54.4999C86.34 57.7666 86.5767 61.2233 86.81 64.8699C86.83 65.2233 86.9767 65.5099 87.25 65.7299C94.87 71.9166 101.723 78.6733 107.81 85.9999C107.927 86.1416 108.095 86.2323 108.278 86.2528C108.461 86.2733 108.644 86.2221 108.79 86.1099C119.597 77.6433 130.773 69.7099 142.32 62.3099C142.627 62.1166 142.763 61.8333 142.73 61.4599ZM143.73 52.3599C143.666 52.3493 143.601 52.3532 143.539 52.3712C143.477 52.3893 143.42 52.4212 143.372 52.4644C143.324 52.5077 143.286 52.5612 143.261 52.621C143.237 52.6808 143.226 52.7454 143.23 52.8099L143.82 60.5499C143.825 60.6234 143.849 60.6943 143.889 60.756C143.929 60.8176 143.984 60.8679 144.05 60.9021C144.115 60.9362 144.188 60.953 144.261 60.9509C144.335 60.9487 144.407 60.9278 144.47 60.8899L152.1 56.2899C152.156 56.2568 152.204 56.2115 152.24 56.1572C152.276 56.103 152.299 56.0413 152.308 55.9768C152.316 55.9123 152.31 55.8466 152.29 55.7848C152.27 55.723 152.235 55.6666 152.19 55.6199L150.15 53.4799C150.085 53.4153 150.001 53.3733 149.91 53.3599L143.73 52.3599ZM85.03 63.8699C85.0798 63.9013 85.1373 63.9183 85.1961 63.9191C85.255 63.92 85.3129 63.9045 85.3636 63.8746C85.4142 63.8446 85.4556 63.8012 85.4832 63.7492C85.5108 63.6973 85.5235 63.6387 85.52 63.5799L84.51 53.1499C84.5064 53.1059 84.4938 53.0631 84.4729 53.0242C84.452 52.9853 84.4232 52.9512 84.3885 52.924C84.3537 52.8967 84.3137 52.877 84.2709 52.866C84.2282 52.8549 84.1836 52.8529 84.14 52.8599L76.43 54.3199C76.3593 54.3352 76.2958 54.374 76.25 54.4299L74.58 56.4299C74.551 56.4639 74.5295 56.5035 74.5167 56.5462C74.504 56.589 74.5003 56.6339 74.506 56.6782C74.5116 56.7225 74.5265 56.7651 74.5495 56.8032C74.5726 56.8414 74.6034 56.8743 74.64 56.8999L85.03 63.8699ZM166.71 72.1399C175.21 69.9999 182.62 68.6099 190.24 67.2399C190.8 67.1399 190.827 66.9599 190.32 66.6999C180.3 61.5799 169.583 57.6766 158.17 54.9899C156.983 54.7166 156.007 55.0799 155.24 56.0799C155.027 56.3599 155.03 56.6399 155.25 56.9199C159.05 61.6533 162.637 66.6333 166.01 71.8599C166.183 72.1199 166.417 72.2133 166.71 72.1399ZM35.53 73.9999C36.15 83.7133 37.7833 93.4433 40.43 103.19C40.5233 103.537 40.73 103.787 41.05 103.94L44.06 105.4C44.5333 105.633 44.8667 105.503 45.06 105.01C51.68 88.0433 60.5533 72.3233 71.68 57.8499C71.88 57.5899 71.9 57.3166 71.74 57.0299C71.2333 56.1233 70.49 55.7866 69.51 56.0199C58.75 58.5466 47.5933 62.8999 36.04 69.0799C35.7067 69.2533 35.53 69.5266 35.51 69.8999C35.4367 71.2599 35.4433 72.6266 35.53 73.9999ZM148.33 76.7499C148.353 76.8281 148.391 76.9009 148.442 76.9643C148.493 77.0277 148.556 77.0805 148.628 77.1195C148.699 77.1585 148.778 77.183 148.859 77.1917C148.94 77.2003 149.022 77.1929 149.1 77.1699L163.86 72.9699C163.957 72.9436 164.045 72.8942 164.119 72.8261C164.192 72.758 164.248 72.6732 164.281 72.5788C164.314 72.4845 164.325 72.3835 164.31 72.2844C164.296 72.1854 164.258 72.0912 164.2 72.0099L153.71 57.3599C153.618 57.2332 153.481 57.1463 153.327 57.1166C153.172 57.0869 153.013 57.1167 152.88 57.1999L144.53 62.4099C144.416 62.4825 144.33 62.5901 144.283 62.7164C144.236 62.8427 144.231 62.9808 144.27 63.1099L148.33 76.7499ZM86.27 68.1899C86.1 67.1999 86.14 66.1599 85.23 65.4899C81.6833 62.8633 78.0167 60.4299 74.23 58.1899C74.0651 58.0921 73.87 58.0584 73.6818 58.0953C73.4937 58.1322 73.3257 58.2371 73.21 58.3899C61.8033 73.3833 52.8833 89.2633 46.45 106.03C46.3033 106.41 46.4067 106.707 46.76 106.92C50.4467 109.087 53.8133 111.57 56.86 114.37C57.0122 114.508 57.2029 114.596 57.4066 114.623C57.6103 114.65 57.8173 114.614 58 114.52C69.79 108.51 81.52 102.78 93.99 97.4299C94.3633 97.2699 94.4767 96.9999 94.33 96.6199C93.43 94.2999 92.5833 92.0066 91.79 89.7399C89.3833 82.8733 87.5433 75.6899 86.27 68.1899ZM203.48 65.9199C203.532 65.9164 203.582 65.8998 203.626 65.8716C203.67 65.8434 203.707 65.8045 203.731 65.7587C203.756 65.7128 203.769 65.6613 203.769 65.6091C203.769 65.5569 203.755 65.5056 203.73 65.4599L200.08 59.3399C200.053 59.2939 200.015 59.2555 199.969 59.2285C199.923 59.2014 199.871 59.1867 199.818 59.1857C199.765 59.1847 199.712 59.1975 199.665 59.2227C199.618 59.248 199.578 59.2849 199.55 59.3299L195.27 66.0299C195.241 66.078 195.225 66.1331 195.225 66.1893C195.225 66.2455 195.24 66.3007 195.269 66.3489C195.298 66.3972 195.339 66.4368 195.389 66.4633C195.438 66.4899 195.494 66.5026 195.55 66.4999L203.48 65.9199ZM32.87 63.7999L31.17 69.4699C31.0833 69.7633 31.18 69.8499 31.46 69.7299L33.06 69.0399C33.4067 68.8866 33.6033 68.6233 33.65 68.2499C33.8233 66.7233 33.7933 65.2566 33.56 63.8499C33.3933 62.8499 33.1633 62.8333 32.87 63.7999ZM109.23 86.8199C109.195 86.8449 109.164 86.8765 109.141 86.9132C109.118 86.9498 109.102 86.9906 109.095 87.0333C109.087 87.0761 109.088 87.1198 109.098 87.1621C109.107 87.2044 109.125 87.2445 109.15 87.2799L111 89.9299C111.04 89.9904 111.099 90.0359 111.168 90.0594C111.237 90.0829 111.311 90.0831 111.38 90.0599L146.85 77.5999C146.929 77.5725 146.995 77.5158 147.034 77.4415C147.073 77.3672 147.082 77.2808 147.06 77.1999L142.87 63.5199C142.855 63.4704 142.829 63.425 142.794 63.3874C142.758 63.3498 142.714 63.3211 142.665 63.3036C142.617 63.2861 142.565 63.2802 142.513 63.2865C142.462 63.2928 142.413 63.3111 142.37 63.3399L109.23 86.8199ZM197.14 67.7099C197.07 67.7099 197.002 67.7322 196.945 67.7736C196.888 67.815 196.846 67.8734 196.825 67.9403C196.804 68.0072 196.805 68.0791 196.827 68.1455C196.85 68.212 196.893 68.2696 196.95 68.3099L208.91 76.8499C208.97 76.8957 209.044 76.9195 209.12 76.9173C209.195 76.9152 209.267 76.8872 209.325 76.838C209.382 76.7889 209.421 76.7215 209.435 76.6473C209.448 76.573 209.436 76.4963 209.4 76.4299L204.96 67.6999C204.932 67.6448 204.889 67.5987 204.836 67.5669C204.783 67.5351 204.722 67.5188 204.66 67.5199L197.14 67.7099ZM94.64 95.0499C94.6985 95.2547 94.8068 95.4418 94.9552 95.5945C95.1036 95.7473 95.2875 95.8609 95.4905 95.9253C95.6935 95.9896 95.9093 96.0028 96.1186 95.9634C96.3279 95.9241 96.5242 95.8336 96.69 95.6999L106.52 87.7699C106.66 87.6569 106.776 87.5156 106.858 87.3554C106.94 87.1951 106.988 87.0193 106.999 86.8393C107.009 86.6594 106.982 86.4792 106.918 86.3105C106.855 86.1419 106.756 85.9883 106.63 85.8599L89.51 68.4999C89.3075 68.2984 89.0439 68.1698 88.7605 68.1343C88.4771 68.0987 88.1899 68.1583 87.9439 68.3036C87.698 68.4488 87.5072 68.6716 87.4015 68.937C87.2958 69.2024 87.2812 69.4954 87.36 69.7699L94.64 95.0499ZM216.21 69.7899C216.17 69.6855 216.105 69.5921 216.022 69.5173C215.938 69.4426 215.838 69.3887 215.73 69.3599L208.25 67.4699C208.12 67.4386 207.984 67.4446 207.857 67.4872C207.731 67.5297 207.619 67.6072 207.534 67.7106C207.449 67.814 207.396 67.9391 207.379 68.0717C207.363 68.2042 207.384 68.3388 207.44 68.4599L213.21 80.7799C213.265 80.8959 213.351 80.9947 213.458 81.0658C213.565 81.137 213.689 81.1778 213.817 81.184C213.945 81.1901 214.073 81.1614 214.186 81.1008C214.299 81.0402 214.394 80.9501 214.46 80.8399L217.96 75.0499C218.016 74.9559 218.05 74.8501 218.059 74.7408C218.068 74.6315 218.051 74.5217 218.01 74.4199L216.21 69.7899ZM167.98 72.7699C167.854 72.7955 167.736 72.8506 167.635 72.9309C167.535 73.0111 167.455 73.1141 167.402 73.2314C167.349 73.3487 167.325 73.4768 167.332 73.6052C167.338 73.7336 167.376 73.8587 167.44 73.9699L175.25 87.5499C175.315 87.6639 175.407 87.7603 175.518 87.8307C175.629 87.9012 175.755 87.9437 175.886 87.9545C176.017 87.9654 176.149 87.9442 176.269 87.8929C176.39 87.8416 176.497 87.7616 176.58 87.6599L191.43 69.4399C191.534 69.3102 191.595 69.1519 191.605 68.9862C191.616 68.8206 191.575 68.6557 191.489 68.5139C191.403 68.3721 191.275 68.2602 191.123 68.1933C190.972 68.1264 190.803 68.1078 190.64 68.1399L167.98 72.7699ZM188.74 100.82C188.799 100.781 188.85 100.729 188.888 100.669C188.926 100.608 188.95 100.541 188.96 100.47L193.17 71.2499C193.186 71.1421 193.165 71.0321 193.113 70.9367C193.06 70.8414 192.977 70.7659 192.878 70.7217C192.778 70.6776 192.667 70.6672 192.561 70.6921C192.455 70.7171 192.36 70.776 192.29 70.8599L176.63 89.7599C176.569 89.8326 176.531 89.921 176.518 90.0148C176.506 90.1086 176.52 90.204 176.56 90.2899L182.88 103.91C182.91 103.974 182.954 104.031 183.008 104.077C183.061 104.123 183.124 104.158 183.193 104.177C183.261 104.197 183.332 104.202 183.402 104.193C183.473 104.183 183.54 104.158 183.6 104.12L188.74 100.82ZM33.94 76.9599C33.7533 75.0733 33.69 73.1833 33.75 71.2899C33.7533 71.199 33.7327 71.1088 33.6902 71.0284C33.6478 70.9479 33.5849 70.88 33.508 70.8314C33.4311 70.7828 33.3428 70.7553 33.2519 70.7515C33.161 70.7477 33.0707 70.7679 32.99 70.8099C31.42 71.6499 30.45 72.2099 29.97 74.1299C27.9433 82.1766 26.69 90.3033 26.21 98.5099C26.19 98.8633 26.1 99.1966 25.94 99.5099C25.78 99.8299 25.7333 100.153 25.8 100.48C25.8667 100.827 26.0767 100.997 26.43 100.99C30.0633 100.97 33.89 101.613 37.91 102.92C38.0001 102.949 38.0965 102.953 38.1885 102.93C38.2805 102.908 38.3644 102.86 38.4308 102.793C38.4972 102.725 38.5436 102.641 38.5646 102.548C38.5857 102.456 38.5806 102.36 38.55 102.27C37.7967 100.143 37.18 97.8866 36.7 95.4999C35.5 89.5933 34.58 83.4133 33.94 76.9599ZM212.15 82.6199C211.97 82.2533 211.733 81.9299 211.44 81.6499C207.32 77.7633 202.89 74.2866 198.15 71.2199C197.277 70.6533 197.15 70.7866 197.77 71.6199C201.17 76.1866 204.443 81.2433 207.59 86.7899C207.803 87.1633 208.07 87.2066 208.39 86.9199L211.96 83.6399C212.28 83.3466 212.343 83.0066 212.15 82.6199ZM190.97 98.9299C190.961 98.9918 190.97 99.0552 190.996 99.112C191.022 99.1689 191.065 99.2168 191.118 99.2498C191.171 99.2828 191.233 99.2995 191.295 99.2977C191.358 99.296 191.419 99.2759 191.47 99.2399L200.09 93.1799C200.144 93.1412 200.184 93.0867 200.206 93.024C200.227 92.9613 200.229 92.8935 200.21 92.8299L195.24 74.0999C195.224 74.0263 195.182 73.9607 195.122 73.9149C195.062 73.8691 194.988 73.8459 194.912 73.8495C194.837 73.8531 194.765 73.8832 194.71 73.9345C194.655 73.9858 194.619 74.055 194.61 74.1299L190.97 98.9299ZM202 91.9699L206.24 88.4699C206.38 88.3566 206.407 88.2233 206.32 88.0699C203.8 83.6499 201.087 79.2999 198.18 75.0199C196.86 73.0733 196.577 73.2166 197.33 75.4499C198.923 80.1566 200.39 85.6299 201.73 91.8699C201.736 91.8981 201.749 91.9243 201.768 91.9461C201.786 91.9679 201.81 91.9846 201.837 91.9946C201.864 92.0045 201.893 92.0075 201.922 92.0032C201.95 91.9989 201.977 91.9875 202 91.9699ZM166.24 74.9699C166.022 74.5982 165.687 74.3092 165.287 74.1482C164.887 73.9871 164.445 73.9631 164.03 74.0799L150.93 77.7399C150.643 77.8201 150.378 77.965 150.156 78.1636C149.934 78.3621 149.76 78.6089 149.648 78.8851C149.536 79.1612 149.488 79.4594 149.51 79.7567C149.531 80.054 149.62 80.3424 149.77 80.5999L161.27 100.23C161.422 100.491 161.632 100.712 161.884 100.878C162.136 101.043 162.423 101.148 162.723 101.184C163.022 101.22 163.326 101.186 163.61 101.085C163.894 100.983 164.151 100.817 164.36 100.6L173.83 90.7799C174.123 90.4746 174.309 90.0821 174.36 89.6618C174.41 89.2414 174.323 88.816 174.11 88.4499L166.24 74.9699ZM26.04 83.7299C26.5733 80.9166 27.18 78.1099 27.86 75.3099C28.08 74.4233 27.82 74.2499 27.08 74.7899C23.3 77.5599 9.44999 89.2599 9.78999 93.7599C10.1633 98.7266 10.6067 103.193 11.12 107.16C11.1355 107.272 11.1824 107.377 11.2551 107.464C11.3279 107.55 11.4236 107.614 11.5312 107.649C11.6389 107.683 11.7541 107.687 11.8635 107.659C11.973 107.63 12.0723 107.572 12.15 107.49C15.1767 104.237 19.03 102.147 23.71 101.22C24.1167 101.14 24.3267 100.893 24.34 100.48C24.5933 93.9466 25.16 88.3633 26.04 83.7299ZM219.11 77.7099C219.097 77.6487 219.067 77.5924 219.024 77.5475C218.98 77.5026 218.925 77.4709 218.864 77.4563C218.804 77.4416 218.74 77.4445 218.681 77.4646C218.622 77.4847 218.569 77.5213 218.53 77.5699L214.83 82.3999C214.786 82.4574 214.762 82.5277 214.762 82.5999C214.762 82.6722 214.786 82.7424 214.83 82.7999L221.17 90.9199C221.216 90.9768 221.28 91.0166 221.352 91.0331C221.424 91.0495 221.499 91.0416 221.565 91.0106C221.632 90.9796 221.686 90.9273 221.719 90.862C221.753 90.7967 221.764 90.722 221.75 90.6499L219.11 77.7099ZM150.15 84.3199C149.397 82.7999 148.767 81.2866 148.26 79.7799C148.171 79.5155 147.982 79.2965 147.733 79.1694C147.485 79.0424 147.197 79.0175 146.93 79.0999C135.217 82.6733 123.753 86.6999 112.54 91.1799C112.481 91.2027 112.427 91.239 112.385 91.2858C112.342 91.3327 112.31 91.3889 112.293 91.45C112.275 91.5111 112.272 91.5754 112.284 91.6379C112.296 91.7003 112.322 91.7592 112.36 91.8099C120.607 102.697 127.487 114.603 133 127.53C133.293 128.21 133.723 128.313 134.29 127.84C143.337 120.273 152.403 112.093 161.49 103.3C161.797 103.007 161.82 102.693 161.56 102.36C157 96.4866 153.197 90.4733 150.15 84.3199ZM8.69141 81.353C8.6972 81.2929 8.69109 81.2322 8.67343 81.1744C8.65577 81.1167 8.6269 81.0629 8.58847 81.0163C8.55005 80.9697 8.50282 80.9311 8.44948 80.9028C8.39614 80.8744 8.33774 80.8568 8.2776 80.851L8.23779 80.8472C8.17766 80.8414 8.11698 80.8475 8.0592 80.8652C8.00143 80.8829 7.94771 80.9117 7.90109 80.9501C7.85448 80.9886 7.81588 81.0358 7.78752 81.0891C7.75916 81.1425 7.74158 81.2009 7.73579 81.261L6.6086 92.9668C6.6028 93.027 6.60891 93.0876 6.62657 93.1454C6.64423 93.2032 6.67311 93.2569 6.71153 93.3035C6.74996 93.3501 6.79718 93.3887 6.85052 93.4171C6.90386 93.4455 6.96227 93.463 7.0224 93.4688L7.06219 93.4726C7.12233 93.4784 7.18301 93.4723 7.24078 93.4547C7.29856 93.437 7.35229 93.4081 7.39891 93.3697C7.44553 93.3313 7.48411 93.284 7.51247 93.2307C7.54083 93.1774 7.5584 93.119 7.56419 93.0588L8.69141 81.353ZM208.68 89.2499C212.71 96.6599 215.74 104.91 217.62 113.01C217.9 114.223 218.313 114.27 218.86 113.15C219.947 110.93 220.127 108.443 219.4 105.69C217.46 98.2899 215.373 91.5433 213.14 85.4499C212.94 84.9233 212.627 84.8466 212.2 85.2199L208.88 88.1299C208.513 88.4499 208.447 88.8233 208.68 89.2499ZM220.29 102.64C220.403 103.093 220.557 103.527 220.75 103.94C221.163 104.813 221.417 104.77 221.51 103.81C221.77 100.94 222.36 97.0899 220.9 94.4599C219.38 91.6933 217.79 89.2099 216.13 87.0099C215.65 86.3766 215.5 86.4466 215.68 87.2199C216.033 88.7333 216.507 90.2533 217.1 91.7799C218.47 95.2899 219.38 99.0199 220.29 102.64ZM107.83 88.3399L100.52 94.0799C99.7933 94.6533 99.8633 94.7799 100.73 94.4599C103.53 93.4399 106.47 92.2433 109.55 90.8699C109.99 90.6699 110.053 90.3866 109.74 90.0199L108.33 88.3899C108.177 88.2099 108.01 88.1933 107.83 88.3399ZM202.13 94.3699C203.857 104.17 204.637 113.91 204.47 123.59C204.45 124.43 204.84 124.72 205.64 124.46C210.313 122.927 213.897 120.49 216.39 117.15C216.677 116.763 216.763 116.34 216.65 115.88C214.497 106.927 211.39 98.4066 207.33 90.3199C207.11 89.8933 206.81 89.8266 206.43 90.1199L202 93.5299C201.833 93.6566 201.78 93.8199 201.84 94.0199C201.88 94.1666 201.977 94.2833 202.13 94.3699ZM181.37 105.37C181.492 105.304 181.585 105.194 181.63 105.062C181.674 104.93 181.667 104.787 181.61 104.66L175.65 91.5499C175.612 91.4698 175.555 91.4 175.485 91.3465C175.414 91.293 175.332 91.2573 175.244 91.2426C175.157 91.2279 175.067 91.2345 174.983 91.2619C174.898 91.2893 174.822 91.3366 174.76 91.3999L164.1 102.39C164.004 102.49 163.949 102.624 163.947 102.763C163.945 102.902 163.996 103.037 164.09 103.14L170.92 110.66C171.003 110.751 171.115 110.811 171.236 110.831C171.357 110.851 171.482 110.829 171.59 110.77L181.37 105.37ZM131.33 127.01C126.17 114.77 119.463 103.18 111.21 92.2399C110.937 91.8799 110.59 91.7866 110.17 91.9599L96.54 97.5399C96.4249 97.5893 96.3334 97.6807 96.2848 97.7946C96.2362 97.9086 96.2345 98.0361 96.28 98.1499C101.507 110.97 108.407 123.143 116.98 134.67C117.413 135.243 117.96 135.393 118.62 135.12L132.18 129.53C132.6 129.357 132.663 129.093 132.37 128.74C131.95 128.24 131.603 127.663 131.33 127.01ZM201.61 102.56C201.383 100.1 201.037 97.6733 200.57 95.2799C200.555 95.2017 200.522 95.1284 200.472 95.0665C200.422 95.0046 200.357 94.9561 200.284 94.9253C200.21 94.8946 200.13 94.8825 200.051 94.8903C199.972 94.8981 199.896 94.9255 199.83 94.9699L190.37 101.27C190.057 101.483 189.863 101.777 189.79 102.15C189.177 105.55 188.257 108.777 187.03 111.83C186.563 112.983 186.533 114.04 186.94 115C187.387 116.067 187.617 116.623 187.63 116.67C188.157 118.563 188.68 120.4 189.2 122.18C189.3 122.507 189.51 122.733 189.83 122.86C193.717 124.4 197.75 125.127 201.93 125.04C202.337 125.033 202.553 124.823 202.58 124.41C202.92 119.417 202.843 114.583 202.35 109.91C202.09 107.47 201.843 105.02 201.61 102.56ZM7.58 112.8C7.58898 112.905 7.63171 113.005 7.70183 113.084C7.77195 113.163 7.8657 113.217 7.96912 113.238C8.07254 113.259 8.18009 113.247 8.27576 113.202C8.37142 113.157 8.45007 113.083 8.5 112.99L9.7 110.82C9.7515 110.729 9.77253 110.624 9.75999 110.52L8.17999 96.8499C8.1643 96.7433 8.11389 96.6448 8.03654 96.5697C7.9592 96.4946 7.85924 96.4471 7.75217 96.4346C7.6451 96.422 7.53688 96.4452 7.44429 96.5004C7.3517 96.5556 7.2799 96.6398 7.24001 96.7399L6.27 99.3399C6.2433 99.41 6.23304 99.4853 6.24001 99.5599L7.58 112.8ZM95.24 98.8099C95.1667 98.6299 95.0533 98.6033 94.9 98.7299C85.6333 106.51 76.3533 114.867 67.06 123.8C66.6133 124.233 66.5867 124.693 66.98 125.18C72.2867 131.767 76.7367 139.263 80.33 147.67C80.4232 147.886 80.5935 148.061 80.8078 148.158C81.0222 148.256 81.2654 148.271 81.49 148.2C93.0767 144.547 104.51 140.513 115.79 136.1C116.263 135.913 116.343 135.617 116.03 135.21C107.597 124.177 100.667 112.043 95.24 98.8099ZM66.19 122.91C74.11 115.18 82.25 107.65 90.75 100.66C90.782 100.632 90.8059 100.596 90.8186 100.555C90.8314 100.515 90.8326 100.472 90.822 100.432C90.8114 100.391 90.7895 100.356 90.759 100.329C90.7285 100.302 90.6906 100.285 90.65 100.28C90.4633 100.247 90.2833 100.267 90.11 100.34C79.73 104.847 69.2833 109.843 58.77 115.33C58.7113 115.361 58.661 115.406 58.6234 115.46C58.5858 115.515 58.5621 115.578 58.5542 115.644C58.5463 115.71 58.5546 115.777 58.5782 115.839C58.6019 115.901 58.6402 115.956 58.69 116C60.9433 117.96 63.0667 120.237 65.06 122.83C65.1255 122.914 65.2081 122.984 65.3023 123.035C65.3966 123.085 65.5005 123.115 65.6071 123.123C65.7138 123.13 65.8208 123.115 65.9212 123.078C66.0217 123.042 66.1133 122.984 66.19 122.91ZM224.96 120.43C226.093 114.023 225.857 107.89 224.25 102.03C224.057 101.323 223.877 101.327 223.71 102.04C222.93 105.36 221.9 108.83 222.41 112.31C222.917 115.783 223.363 119.207 223.75 122.58C223.883 123.713 224.113 123.733 224.44 122.64C224.653 121.913 224.827 121.177 224.96 120.43ZM39.28 104.96C39.2431 104.794 39.1662 104.641 39.0561 104.513C38.9461 104.386 38.8065 104.288 38.65 104.23C35.8633 103.143 32.7333 102.413 29.26 102.04C28.22 101.927 27.23 101.993 26.29 102.24C25.93 102.333 25.75 102.567 25.75 102.94C25.6233 112.9 26.3667 122.607 27.98 132.06C27.9884 132.117 28.0113 132.171 28.0465 132.217C28.0817 132.263 28.128 132.299 28.181 132.322C28.2341 132.345 28.2922 132.354 28.3497 132.349C28.4073 132.343 28.4624 132.323 28.51 132.29L38.14 125.95C38.4267 125.763 38.6033 125.5 38.67 125.16C39.25 122.207 40.1367 119.16 41.33 116.02C41.73 114.97 42.01 113.54 41.58 112.45C40.6267 109.997 39.86 107.5 39.28 104.96ZM24.41 116.35C23.85 112.03 23.88 107.6 24.21 103.26C24.25 102.727 24.0067 102.52 23.48 102.64C18.7933 103.693 14.98 106.187 12.04 110.12C11.8533 110.38 11.7933 110.667 11.86 110.98C13.8733 119.74 16.9367 128.293 21.05 136.64C21.0976 136.736 21.1656 136.82 21.2493 136.886C21.333 136.953 21.4302 137 21.5342 137.025C21.6382 137.05 21.7463 137.051 21.851 137.03C21.9557 137.008 22.0543 136.964 22.14 136.9L26.3 133.72C26.3923 133.651 26.4623 133.556 26.5014 133.446C26.5404 133.336 26.5469 133.215 26.52 133.1C25.44 128.493 24.8367 124.233 24.71 120.32C24.6633 118.88 24.5633 117.557 24.41 116.35ZM185.1 109.68C185.139 109.768 185.205 109.841 185.287 109.891C185.369 109.94 185.465 109.963 185.561 109.957C185.657 109.95 185.748 109.914 185.823 109.854C185.898 109.794 185.953 109.712 185.98 109.62L187.68 103.78C187.707 103.689 187.705 103.591 187.675 103.501C187.645 103.411 187.588 103.331 187.512 103.274C187.437 103.217 187.345 103.184 187.25 103.179C187.155 103.175 187.061 103.2 186.98 103.25L183.63 105.44C183.534 105.5 183.463 105.593 183.43 105.701C183.397 105.81 183.404 105.926 183.45 106.03L185.1 109.68ZM3.62 106.24C3.42 108.28 2.69 110.31 2.7 112.36C2.72666 116.18 3.15333 120.213 3.98 124.46C4.02 124.66 4.13667 124.793 4.33 124.86C4.46334 124.9 4.59001 124.88 4.71001 124.8C4.93667 124.64 5.06 124.423 5.08 124.15C5.2 122.503 5.49667 120.917 5.97 119.39C6.31667 118.27 6.38333 117.097 6.17 115.87C5.61 112.637 5.13334 109.42 4.74001 106.22C4.32001 102.813 3.94666 102.82 3.62 106.24ZM138.27 126.72C148.11 122.53 159.38 117.1 169.57 111.67C169.628 111.638 169.677 111.593 169.714 111.537C169.751 111.482 169.773 111.419 169.78 111.353C169.787 111.287 169.778 111.221 169.754 111.159C169.729 111.098 169.69 111.043 169.64 111C167.333 109.073 165.303 106.89 163.55 104.45C163.097 103.817 162.59 103.773 162.03 104.32C154.483 111.753 146.463 119.06 137.97 126.24C137.01 127.053 137.11 127.213 138.27 126.72ZM41.58 105.59C41.5198 105.558 41.4516 105.546 41.3841 105.553C41.3166 105.561 41.2529 105.588 41.2013 105.633C41.1496 105.677 41.1124 105.735 41.0943 105.801C41.0763 105.866 41.0782 105.936 41.1 106L42.6 110.42C42.6253 110.488 42.672 110.547 42.7332 110.587C42.7945 110.627 42.8669 110.646 42.9399 110.642C43.0128 110.637 43.0824 110.609 43.1383 110.562C43.1941 110.515 43.2333 110.451 43.25 110.38L43.97 107.13C43.9854 107.058 43.9772 106.983 43.9465 106.917C43.9159 106.85 43.8645 106.795 43.8 106.76L41.58 105.59ZM182.35 119.46C182.393 119.491 182.442 119.512 182.494 119.52C182.546 119.529 182.6 119.525 182.65 119.51C182.7 119.494 182.747 119.467 182.785 119.431C182.823 119.394 182.852 119.35 182.87 119.3L184.87 113.77C184.896 113.691 184.892 113.606 184.86 113.53L182.25 106.68C182.232 106.635 182.205 106.595 182.17 106.562C182.135 106.528 182.094 106.503 182.048 106.487C182.003 106.471 181.955 106.465 181.907 106.468C181.859 106.472 181.812 106.487 181.77 106.51L172.49 111.6C172.438 111.627 172.394 111.666 172.362 111.715C172.33 111.764 172.311 111.82 172.307 111.879C172.303 111.937 172.314 111.995 172.339 112.048C172.364 112.101 172.402 112.146 172.45 112.18L182.35 119.46ZM46.31 107.84C46.2549 107.798 46.1908 107.769 46.1228 107.756C46.0549 107.743 45.9847 107.746 45.918 107.764C45.8512 107.783 45.7896 107.816 45.7379 107.862C45.6862 107.908 45.6459 107.966 45.62 108.03L43.59 113.12C43.5508 113.223 43.5508 113.337 43.59 113.44L46.11 120.36C46.1322 120.421 46.1674 120.476 46.2131 120.523C46.2588 120.569 46.314 120.604 46.3748 120.627C46.4356 120.65 46.5006 120.659 46.5654 120.655C46.6301 120.65 46.6931 120.631 46.75 120.6L55.64 115.58C55.7048 115.543 55.7595 115.491 55.7991 115.428C55.8388 115.365 55.8621 115.293 55.8671 115.218C55.872 115.144 55.8584 115.07 55.8275 115.002C55.7966 114.934 55.7494 114.875 55.69 114.83L46.31 107.84ZM179.48 127.55C180.38 125.48 181.05 123.24 182.13 121.27C182.323 120.917 182.247 120.637 181.9 120.43C178.12 118.203 174.637 115.643 171.45 112.75C171.177 112.497 170.87 112.457 170.53 112.63C158.543 118.857 146.517 124.54 134.45 129.68C134.103 129.827 134.003 130.073 134.15 130.42C138.063 140.053 140.827 150.073 142.44 160.48C142.5 160.86 142.683 161.17 142.99 161.41C146.557 164.243 150.347 166.797 154.36 169.07C154.713 169.27 155.01 169.21 155.25 168.89C165.043 156.07 173.12 142.29 179.48 127.55ZM9.84 113.77C8.56 115.637 8.18334 117.69 8.71001 119.93C10.6367 128.11 12.8867 135.47 15.46 142.01C15.4862 142.073 15.5272 142.129 15.5794 142.174C15.6316 142.218 15.6935 142.249 15.7596 142.263C15.8256 142.278 15.8939 142.276 15.9585 142.258C16.0231 142.24 16.082 142.207 16.13 142.16L19.48 138.96C19.8133 138.647 19.8733 138.287 19.66 137.88C15.5933 130.253 12.5867 122.267 10.64 113.92C10.622 113.836 10.5798 113.76 10.5185 113.701C10.4572 113.641 10.3795 113.601 10.2947 113.585C10.21 113.569 10.1219 113.578 10.0411 113.611C9.96041 113.644 9.89053 113.699 9.84 113.77ZM220.55 130.89C220.561 130.963 220.596 131.031 220.649 131.083C220.702 131.135 220.771 131.167 220.845 131.177C220.918 131.186 220.993 131.17 221.057 131.133C221.121 131.096 221.171 131.038 221.2 130.97L222.19 128.54C222.209 128.489 222.216 128.434 222.21 128.38L221 114.27C220.993 114.203 220.966 114.141 220.923 114.089C220.881 114.038 220.824 114 220.76 113.981C220.696 113.962 220.627 113.962 220.563 113.981C220.499 114.001 220.443 114.038 220.4 114.09L218.76 116.15C218.705 116.221 218.679 116.311 218.69 116.4L220.55 130.89ZM43.25 116.9C43.2283 116.84 43.1883 116.789 43.1358 116.754C43.0833 116.719 43.021 116.701 42.9577 116.703C42.8945 116.705 42.8336 116.728 42.7837 116.766C42.7338 116.805 42.6975 116.859 42.68 116.92L40.46 123.81C40.4387 123.869 40.4367 123.934 40.4544 123.995C40.472 124.056 40.5084 124.109 40.5582 124.148C40.6081 124.187 40.669 124.209 40.7322 124.211C40.7953 124.213 40.8576 124.195 40.91 124.16L44.76 121.59C44.8145 121.552 44.8548 121.497 44.8747 121.434C44.8946 121.37 44.893 121.302 44.87 121.24L43.25 116.9ZM47.13 121.85C47.0184 121.913 46.9347 122.016 46.8958 122.139C46.8569 122.261 46.8655 122.394 46.92 122.51L52.84 135.57C52.8748 135.645 52.9274 135.711 52.9933 135.761C53.0592 135.811 53.1363 135.845 53.2181 135.859C53.2998 135.873 53.3837 135.866 53.4625 135.84C53.5412 135.814 53.6124 135.77 53.67 135.71L64.48 124.81C64.5736 124.716 64.627 124.589 64.6289 124.457C64.6307 124.324 64.5809 124.196 64.49 124.1L57.5 116.6C57.4226 116.516 57.3196 116.461 57.2072 116.443C57.0949 116.425 56.9797 116.445 56.88 116.5L47.13 121.85ZM187.39 121.24L186.05 117.24C186.045 117.226 186.038 117.213 186.029 117.202C186.019 117.191 186.008 117.182 185.995 117.176C185.982 117.169 185.967 117.165 185.953 117.164C185.938 117.163 185.924 117.165 185.91 117.17C185.637 117.262 185.384 117.406 185.167 117.595C184.95 117.784 184.772 118.014 184.644 118.271C184.516 118.528 184.44 118.808 184.42 119.095C184.4 119.381 184.438 119.668 184.53 119.94L184.55 120.01C184.641 120.281 184.785 120.532 184.973 120.748C185.162 120.964 185.391 121.14 185.649 121.267C185.906 121.395 186.186 121.47 186.473 121.489C186.759 121.509 187.047 121.471 187.32 121.38C187.334 121.375 187.347 121.368 187.358 121.359C187.369 121.349 187.378 121.338 187.384 121.325C187.391 121.312 187.395 121.297 187.396 121.283C187.397 121.268 187.395 121.254 187.39 121.24ZM218.53 134.75C218.63 129.75 217.8 124.73 217.41 119.82C217.402 119.712 217.363 119.609 217.298 119.523C217.233 119.437 217.145 119.371 217.043 119.334C216.942 119.297 216.832 119.29 216.727 119.314C216.621 119.339 216.525 119.393 216.45 119.47C213.183 122.757 209.26 124.88 204.68 125.84C204.327 125.913 204.143 126.133 204.13 126.5C203.857 134.527 202.663 142.977 200.55 151.85C200.383 152.557 200.6 152.703 201.2 152.29C207.827 147.677 213.487 142.173 218.18 135.78C218.407 135.473 218.523 135.13 218.53 134.75ZM187.91 124.1C187.777 123.62 187.483 123.27 187.03 123.05L184.42 121.76C183.893 121.5 183.52 121.643 183.3 122.19C176.513 139.15 168.023 154.32 157.83 167.7C155.57 170.673 156.253 171.713 159.88 170.82C171.06 168.08 181.85 163.79 192.25 157.95C192.557 157.783 192.707 157.523 192.7 157.17C192.587 146.163 190.99 135.14 187.91 124.1ZM7.89 124.18C7.55 122.82 7.26 122.83 7.02 124.21C6.76 125.717 6.61666 127.35 6.59 129.11C6.57 130.723 6.98334 132.203 7.83 133.55C8.87667 135.217 9.97 136.827 11.11 138.38C12.75 140.593 13.0667 140.42 12.06 137.86C10.6733 134.34 9.28333 129.78 7.89 124.18ZM39.64 126.49C39.6021 126.514 39.5699 126.546 39.5457 126.584C39.5216 126.622 39.506 126.665 39.5 126.71L35.17 156.53C35.1627 156.595 35.1765 156.661 35.2092 156.718C35.242 156.776 35.2921 156.821 35.3522 156.847C35.4124 156.874 35.4794 156.881 35.5438 156.867C35.6081 156.853 35.6663 156.819 35.71 156.77L51.78 137.41C51.8173 137.364 51.8409 137.309 51.848 137.251C51.8551 137.192 51.8454 137.133 51.82 137.08L45.41 123.1C45.3914 123.06 45.3643 123.024 45.3306 122.995C45.2969 122.966 45.2573 122.945 45.2147 122.932C45.172 122.92 45.1272 122.917 45.0832 122.923C45.0393 122.93 44.9973 122.946 44.96 122.97L39.64 126.49ZM201.3 138.15C201.747 135.277 201.943 132.353 201.89 129.38C201.883 128.973 201.96 128.58 202.12 128.2L202.49 127.28C202.763 126.627 202.547 126.297 201.84 126.29C198.12 126.25 194.35 125.627 190.53 124.42C189.99 124.247 189.793 124.433 189.94 124.98C192.74 135.387 194.333 145.71 194.72 155.95C194.74 156.577 194.997 156.693 195.49 156.3C196.5 155.49 198.08 154.89 198.38 153.53C199.573 148.097 200.547 142.97 201.3 138.15ZM62.32 152.27C62.5372 152.649 62.8741 152.945 63.2777 153.111C63.6814 153.278 64.1289 153.305 64.55 153.19L77.68 149.56C77.9722 149.48 78.2422 149.334 78.4688 149.134C78.6955 148.933 78.8728 148.682 78.987 148.402C79.1011 148.121 79.1491 147.818 79.127 147.516C79.105 147.214 79.0136 146.921 78.86 146.66L67.37 127.15C67.2159 126.889 67.0037 126.667 66.7498 126.502C66.496 126.336 66.2074 126.231 65.9065 126.196C65.6056 126.16 65.3005 126.194 65.0149 126.295C64.7294 126.397 64.471 126.562 64.26 126.78L54.88 136.41C54.5819 136.716 54.3914 137.111 54.3373 137.535C54.2832 137.959 54.3684 138.389 54.58 138.76L62.32 152.27ZM33.44 152.81C33.92 154.13 34.18 154.09 34.22 152.69C34.42 145.783 35.3133 138.87 36.9 131.95C37.1867 130.723 37.4533 129.557 37.7 128.45C37.7219 128.36 37.7161 128.267 37.6832 128.181C37.6504 128.095 37.592 128.021 37.5157 127.969C37.4394 127.916 37.3485 127.887 37.2548 127.885C37.1611 127.884 37.0689 127.91 36.99 127.96L28.9 133.32C28.5133 133.58 28.36 133.94 28.44 134.4C29.54 140.473 31.2067 146.61 33.44 152.81ZM133.83 131.8C133.779 131.619 133.684 131.453 133.553 131.318C133.422 131.182 133.26 131.081 133.081 131.024C132.901 130.967 132.711 130.954 132.526 130.989C132.341 131.023 132.167 131.102 132.02 131.22L121.79 139.5C121.666 139.6 121.565 139.726 121.492 139.868C121.42 140.01 121.378 140.166 121.369 140.325C121.361 140.484 121.386 140.643 121.443 140.792C121.5 140.941 121.587 141.077 121.7 141.19L139.42 159.1C139.598 159.283 139.832 159.401 140.084 159.435C140.337 159.469 140.594 159.418 140.814 159.289C141.034 159.16 141.204 158.961 141.298 158.723C141.392 158.486 141.403 158.224 141.33 157.98L133.83 131.8ZM121.05 138.52L127.87 133.08C128.69 132.427 128.61 132.283 127.63 132.65C124.683 133.757 121.767 134.933 118.88 136.18C118.796 136.216 118.723 136.272 118.665 136.342C118.607 136.412 118.566 136.494 118.546 136.582C118.527 136.67 118.529 136.762 118.552 136.848C118.575 136.935 118.619 137.014 118.68 137.08L119.89 138.42C120.037 138.58 120.238 138.68 120.453 138.698C120.668 138.717 120.881 138.653 121.05 138.52ZM221.962 134.176C221.965 134.141 221.962 134.106 221.951 134.072C221.941 134.038 221.924 134.006 221.901 133.979C221.878 133.952 221.85 133.929 221.819 133.913C221.788 133.896 221.753 133.886 221.718 133.883L221.22 133.836C221.185 133.833 221.149 133.837 221.116 133.847C221.082 133.858 221.05 133.875 221.023 133.898C220.996 133.92 220.973 133.948 220.957 133.979C220.94 134.011 220.93 134.045 220.927 134.08L219.698 147.323C219.695 147.359 219.698 147.394 219.709 147.428C219.719 147.462 219.736 147.494 219.759 147.521C219.782 147.548 219.81 147.571 219.841 147.587C219.872 147.604 219.907 147.614 219.942 147.617L220.44 147.663C220.475 147.667 220.511 147.663 220.544 147.653C220.578 147.642 220.61 147.625 220.637 147.602C220.664 147.58 220.687 147.552 220.703 147.521C220.72 147.489 220.73 147.455 220.733 147.42L221.962 134.176ZM29.17 145.62C28.25 142.207 27.4033 138.787 26.63 135.36C26.6304 135.353 26.6286 135.346 26.6248 135.34C26.621 135.334 26.6153 135.33 26.6082 135.327C26.6011 135.323 26.593 135.322 26.5845 135.323C26.5761 135.323 26.5676 135.326 26.56 135.33C25.0667 136.303 23.65 137.363 22.31 138.51C22.17 138.63 22.1433 138.773 22.23 138.94C24.77 143.84 27.6233 148.41 30.79 152.65C31.6233 153.77 31.8 153.677 31.32 152.37C30.5067 150.157 29.79 147.907 29.17 145.62ZM9.25999 149.39C9.27256 149.453 9.30314 149.511 9.34799 149.556C9.39284 149.602 9.45002 149.634 9.51257 149.647C9.57512 149.661 9.64034 149.657 9.70026 149.634C9.76017 149.611 9.81221 149.572 9.85001 149.52L13.47 144.78C13.5138 144.722 13.5375 144.652 13.5375 144.58C13.5375 144.508 13.5138 144.437 13.47 144.38L7.16 136.06C7.11566 135.997 7.05067 135.951 6.9763 135.931C6.90193 135.911 6.82288 135.918 6.75282 135.95C6.68277 135.982 6.62613 136.037 6.59274 136.107C6.55935 136.176 6.55132 136.255 6.57001 136.33L9.25999 149.39ZM118.97 140.62C119.136 140.503 119.25 140.325 119.288 140.126C119.325 139.926 119.283 139.719 119.17 139.55L117.8 137.5C117.703 137.356 117.561 137.248 117.396 137.194C117.232 137.139 117.053 137.142 116.89 137.2L82.09 149.4C81.9005 149.466 81.7438 149.603 81.6525 149.782C81.5612 149.96 81.5424 150.168 81.6 150.36L85.42 163.13C85.4557 163.249 85.5193 163.357 85.6053 163.446C85.6913 163.536 85.7974 163.603 85.9147 163.643C86.032 163.683 86.1572 163.695 86.2798 163.677C86.4025 163.659 86.5191 163.612 86.62 163.54L118.97 140.62ZM60.52 154.27C60.6475 154.245 60.7671 154.19 60.8688 154.109C60.9705 154.028 61.0512 153.924 61.1041 153.805C61.1571 153.686 61.1807 153.557 61.173 153.427C61.1653 153.297 61.1266 153.171 61.06 153.06L53.04 139.59C52.9738 139.477 52.8811 139.381 52.7699 139.312C52.6586 139.242 52.5321 139.2 52.4013 139.191C52.2704 139.181 52.1391 139.203 52.0187 139.255C51.8983 139.307 51.7924 139.388 51.71 139.49L36.92 157.44C36.814 157.569 36.7503 157.727 36.7376 157.893C36.725 158.06 36.764 158.226 36.8493 158.369C36.9346 158.513 37.0622 158.626 37.2144 158.694C37.3667 158.762 37.5363 158.782 37.7 158.75L60.52 154.27ZM217.68 147.79C217.99 145.28 218.58 142.81 218.72 140.27C218.813 138.637 218.373 138.48 217.4 139.8C212.87 145.94 206.33 151.01 200.19 155.24C199.943 155.407 199.78 155.633 199.7 155.92C198.447 160.387 196.847 165.07 194.9 169.97C194.053 172.09 193.543 174.223 193.37 176.37C193.317 176.977 193.583 177.2 194.17 177.04C200.603 175.247 206.213 171.727 211 166.48C212.893 164.407 214.273 161.97 215.14 159.17C216.387 155.117 217.233 151.323 217.68 147.79ZM21.26 141.05C20.9 140.377 20.4267 140.287 19.84 140.78L16.96 143.22C16.8062 143.35 16.6813 143.511 16.5932 143.692C16.505 143.873 16.4556 144.071 16.4481 144.272C16.4406 144.474 16.4751 144.674 16.5494 144.862C16.6238 145.049 16.7364 145.219 16.88 145.36C20.74 149.18 25.1833 152.68 30.21 155.86C30.95 156.333 31.0733 156.207 30.58 155.48C27.31 150.71 24.06 146.24 21.26 141.05ZM142.37 174.02L141.48 162.28C141.453 161.907 141.293 161.603 141 161.37C133.553 155.443 126.71 148.693 120.47 141.12C120.23 140.82 119.96 140.79 119.66 141.03C109.54 148.99 98.33 156.943 86.03 164.89C85.63 165.15 85.49 165.51 85.61 165.97C86.2967 168.643 86.6133 171.437 86.56 174.35C86.5533 174.85 86.7967 175.133 87.29 175.2C105.423 177.54 123.64 177.327 141.94 174.56C142.253 174.513 142.397 174.333 142.37 174.02ZM12.31 157.43C12.3479 157.528 12.4085 157.615 12.4867 157.684C12.565 157.754 12.6586 157.804 12.76 157.83L20.25 159.77C20.3719 159.803 20.5007 159.801 20.6212 159.763C20.7418 159.725 20.8489 159.654 20.93 159.557C21.0111 159.46 21.0627 159.342 21.0786 159.217C21.0946 159.091 21.0742 158.964 21.02 158.85L15.23 146.48C15.179 146.374 15.1008 146.284 15.0033 146.218C14.9059 146.153 14.7927 146.115 14.6755 146.108C14.5584 146.101 14.4414 146.125 14.3367 146.178C14.232 146.231 14.1434 146.311 14.08 146.41L10.51 152.04C10.4547 152.127 10.4204 152.225 10.41 152.328C10.3996 152.43 10.4133 152.534 10.45 152.63L12.31 157.43ZM18.96 150.03C20.3067 153.097 21.8633 156.227 23.63 159.42C23.81 159.747 24.09 159.897 24.47 159.87L31.03 159.32C32.07 159.233 32.1367 158.93 31.23 158.41C26.8033 155.843 22.82 152.973 19.28 149.8C18.8067 149.373 18.7 149.45 18.96 150.03ZM80.18 150.48C80.1382 150.338 80.0423 150.219 79.9131 150.148C79.7839 150.077 79.6319 150.06 79.49 150.1L64.54 154.29C64.4521 154.313 64.3712 154.358 64.3043 154.419C64.2373 154.481 64.1864 154.558 64.1559 154.643C64.1254 154.729 64.1162 154.821 64.1291 154.911C64.142 155.001 64.1766 155.086 64.23 155.16L74.77 169.89C74.8512 170.007 74.974 170.089 75.1133 170.118C75.2527 170.148 75.3981 170.124 75.52 170.05L83.99 164.82C84.093 164.755 84.1721 164.659 84.2154 164.545C84.2587 164.431 84.2638 164.307 84.23 164.19L80.18 150.48ZM38.54 160.68C48.0667 165.413 58.4133 169.22 69.58 172.1C71.1 172.493 72.3533 172.217 73.34 171.27C73.5933 171.023 73.61 170.763 73.39 170.49C69.7033 165.923 66.0967 160.873 62.57 155.34C62.4806 155.198 62.3472 155.089 62.189 155.028C62.0309 154.967 61.8561 154.957 61.69 155C54.0767 156.973 46.41 158.56 38.69 159.76C37.6767 159.913 37.6267 160.22 38.54 160.68ZM195.24 163.64L197.22 157.92C197.413 157.36 197.243 157.21 196.71 157.47L195.41 158.09C195.057 158.263 194.887 158.55 194.9 158.95L195.05 163.61C195.063 163.957 195.127 163.967 195.24 163.64ZM22.56 161.55C22.5135 161.47 22.45 161.402 22.3739 161.35C22.2977 161.298 22.211 161.264 22.12 161.25L14.17 160.07C14.0543 160.054 13.9364 160.07 13.8298 160.118C13.7232 160.166 13.6323 160.243 13.5675 160.34C13.5027 160.437 13.4667 160.551 13.4636 160.667C13.4605 160.784 13.4905 160.899 13.55 161L23.79 178.37C23.8507 178.472 23.9394 178.554 24.0455 178.607C24.1516 178.66 24.2706 178.681 24.3884 178.669C24.5063 178.656 24.6181 178.61 24.7105 178.536C24.803 178.461 24.8722 178.362 24.91 178.25L27.55 170.51C27.5785 170.426 27.5888 170.337 27.5802 170.25C27.5715 170.162 27.5442 170.076 27.5 170L22.56 161.55ZM191.66 172.38C191.99 171.55 192.62 170.63 192.65 169.78C192.77 166.827 192.917 163.7 193.09 160.4C193.094 160.305 193.073 160.211 193.029 160.127C192.985 160.044 192.919 159.973 192.839 159.922C192.759 159.871 192.667 159.843 192.573 159.839C192.478 159.835 192.384 159.856 192.3 159.9C181.807 165.433 171.547 169.477 161.52 172.03C161.472 172.041 161.428 172.067 161.395 172.104C161.362 172.141 161.341 172.188 161.336 172.237C161.33 172.287 161.34 172.336 161.364 172.38C161.388 172.423 161.425 172.458 161.47 172.48C169.757 176.647 178.697 178.487 188.29 178C188.677 177.98 188.97 177.803 189.17 177.47C190.157 175.81 190.987 174.113 191.66 172.38ZM25.01 161.15C24.9515 161.152 24.8947 161.17 24.845 161.201C24.7953 161.232 24.7544 161.275 24.7262 161.326C24.6981 161.377 24.6836 161.435 24.6843 161.493C24.685 161.552 24.7007 161.609 24.73 161.66L28.41 167.88C28.4395 167.93 28.4814 167.972 28.5317 168.001C28.582 168.031 28.639 168.046 28.6972 168.048C28.7554 168.049 28.8129 168.035 28.8642 168.007C28.9154 167.979 28.9588 167.939 28.99 167.89L33.18 161.22C33.2133 161.167 33.2313 161.106 33.232 161.043C33.2327 160.98 33.2161 160.919 33.184 160.865C33.152 160.811 33.1057 160.767 33.0503 160.738C32.9949 160.709 32.9325 160.696 32.87 160.7L25.01 161.15ZM30.76 168.03C30.5 168.58 30.08 168.91 29.85 169.42C29.6967 169.747 29.7167 170.063 29.91 170.37C31.7433 173.21 33.59 175.867 35.45 178.34C36.3367 179.52 36.57 179.4 36.15 177.98C34.76 173.28 34.54 168.13 34.37 163.16C34.35 162.607 34.1733 162.55 33.84 162.99C32.62 164.57 31.5933 166.25 30.76 168.03ZM68.33 173.22C58.22 170.8 48.86 167.49 39.91 163.14C39.0433 162.713 38.9367 162.857 39.59 163.57C45.0033 169.41 50.5367 174.767 56.19 179.64C56.311 179.744 56.4601 179.81 56.6184 179.829C56.7767 179.849 56.9373 179.821 57.08 179.75L68.42 173.98C69.08 173.647 69.05 173.393 68.33 173.22ZM143.52 163.31C143.469 163.276 143.409 163.258 143.347 163.256C143.286 163.255 143.225 163.27 143.172 163.301C143.119 163.333 143.075 163.378 143.047 163.433C143.018 163.487 143.006 163.549 143.01 163.61L143.85 173.98C143.855 174.025 143.869 174.069 143.891 174.109C143.914 174.149 143.945 174.183 143.981 174.211C144.018 174.238 144.06 174.257 144.104 174.267C144.149 174.278 144.195 174.278 144.24 174.27L151.84 172.89C151.904 172.877 151.964 172.846 152.01 172.8L154.05 170.83C154.085 170.795 154.112 170.754 154.128 170.707C154.145 170.661 154.151 170.612 154.146 170.563C154.142 170.514 154.126 170.467 154.101 170.425C154.075 170.383 154.041 170.347 154 170.32L143.52 163.31ZM36.29 166.5C36.5967 172.3 37.66 178.067 39.48 183.8C39.5657 184.071 39.7064 184.322 39.8934 184.537C40.0803 184.751 40.3096 184.925 40.5667 185.047C40.8238 185.169 41.1034 185.237 41.3878 185.246C41.6723 185.255 41.9556 185.205 42.22 185.1C43.3133 184.66 44.4467 184.337 45.62 184.13C46.5467 183.97 46.74 183.503 46.2 182.73C42.4733 177.403 39.1967 171.447 36.37 164.86C36.1567 164.367 36.01 164.387 35.93 164.92C35.8767 165.293 35.94 165.637 36.12 165.95C36.22 166.117 36.2767 166.3 36.29 166.5ZM39.15 166.96C42.03 172.84 45.1 178.187 48.36 183C48.4467 183.12 48.5567 183.157 48.69 183.11C50.8633 182.343 52.9167 181.477 54.85 180.51C54.8582 180.504 54.8652 180.497 54.8704 180.489C54.8756 180.481 54.8788 180.472 54.8798 180.463C54.8808 180.454 54.8795 180.446 54.876 180.438C54.8726 180.431 54.8671 180.424 54.86 180.42C49.0467 175.84 44.0533 171.19 39.88 166.47C38.44 164.843 38.1967 165.007 39.15 166.96ZM84.8 174.93C84.8716 174.943 84.9451 174.939 85.0149 174.918C85.0846 174.898 85.1486 174.861 85.202 174.812C85.2553 174.762 85.2964 174.701 85.3221 174.633C85.3478 174.565 85.3573 174.492 85.35 174.42L84.5 166.69C84.4912 166.612 84.4629 166.537 84.4176 166.472C84.3723 166.408 84.3115 166.356 84.2407 166.321C84.17 166.286 84.0917 166.269 84.0129 166.273C83.9341 166.276 83.8575 166.299 83.79 166.34L76.36 170.87C76.3024 170.905 76.253 170.952 76.215 171.007C76.1771 171.063 76.1516 171.126 76.1402 171.193C76.1288 171.259 76.1319 171.327 76.1491 171.392C76.1663 171.457 76.1973 171.518 76.24 171.57L77.97 173.64C78.0415 173.725 78.1407 173.781 78.25 173.8L84.8 174.93ZM207.79 174.2C208.417 173.22 208.987 172.28 209.5 171.38C209.973 170.547 209.85 170.447 209.13 171.08C204.463 175.153 199.213 177.78 193.38 178.96C193 179.04 192.777 179.27 192.71 179.65C191.84 184.75 189.6 189.8 187.42 194.49C187.147 195.077 187.28 195.19 187.82 194.83C195.56 189.703 202.217 182.827 207.79 174.2ZM30.63 185.89C30.6936 185.959 30.7709 186.014 30.8569 186.052C30.943 186.09 31.036 186.11 31.13 186.11L37.46 186.1C37.5838 186.099 37.7049 186.064 37.8102 185.999C37.9156 185.934 38.0012 185.841 38.0578 185.731C38.1144 185.621 38.1398 185.497 38.1314 185.374C38.123 185.25 38.081 185.131 38.01 185.03L29.24 172.73C29.1637 172.622 29.0577 172.539 28.9349 172.49C28.812 172.442 28.6777 172.43 28.5484 172.456C28.419 172.483 28.3001 172.547 28.2063 172.64C28.1124 172.733 28.0477 172.851 28.02 172.98L26.34 180.86C26.3167 180.968 26.32 181.08 26.3497 181.186C26.3793 181.292 26.4343 181.39 26.51 181.47L30.63 185.89ZM170.82 202.82C177.54 196.24 183.19 188.7 187.84 180.2C188.06 179.793 187.94 179.597 187.48 179.61C178.193 179.817 169.26 177.787 160.68 173.52C158.15 172.26 155.97 173.42 153.46 173.93C153.207 173.982 152.975 174.115 152.8 174.31L143.61 184.65C143.39 184.903 143.263 185.197 143.23 185.53C142.317 194.85 139.9 202.57 135.98 208.69C135.767 209.03 135.86 209.207 136.26 209.22C146.453 209.607 156.843 208.133 167.43 204.8C168.763 204.38 169.893 203.72 170.82 202.82ZM81.11 194.82C82.89 191.39 84.1 187.75 84.77 183.92C84.7948 183.77 84.7852 183.617 84.7419 183.471C84.6986 183.326 84.6227 183.192 84.52 183.08L77.84 175.84C77.4333 175.4 76.9367 175.117 76.35 174.99L72.05 174.02C71.5594 173.91 71.0489 173.978 70.61 174.21L58.08 180.61C58.0514 180.624 58.0269 180.646 58.0088 180.673C57.9908 180.699 57.9797 180.73 57.9767 180.762C57.9738 180.794 57.9789 180.826 57.9917 180.855C58.0045 180.885 58.0246 180.91 58.05 180.93C64.9367 186.29 72.3067 191.017 80.16 195.11C80.2414 195.154 80.3305 195.181 80.4224 195.19C80.5143 195.199 80.607 195.19 80.6953 195.163C80.7836 195.136 80.8657 195.092 80.9369 195.033C81.0081 194.974 81.0669 194.902 81.11 194.82ZM143.69 181.54C143.691 181.605 143.712 181.669 143.75 181.723C143.787 181.776 143.84 181.818 143.901 181.841C143.962 181.865 144.029 181.87 144.093 181.855C144.157 181.841 144.215 181.808 144.26 181.76L150.03 175.25C150.075 175.198 150.102 175.134 150.109 175.066C150.115 174.998 150.1 174.929 150.066 174.87C150.032 174.811 149.981 174.764 149.919 174.735C149.857 174.706 149.787 174.697 149.72 174.71L143.99 175.8C143.915 175.814 143.847 175.853 143.798 175.912C143.749 175.97 143.721 176.044 143.72 176.12L143.69 181.54ZM80.43 175.7C80.3682 175.689 80.3046 175.699 80.2483 175.726C80.1919 175.754 80.1456 175.798 80.1158 175.853C80.086 175.908 80.0742 175.971 80.0822 176.034C80.0901 176.096 80.1173 176.154 80.16 176.2L84.82 181.02C84.8613 181.061 84.9135 181.088 84.9703 181.1C85.027 181.112 85.0859 181.106 85.1398 181.085C85.1938 181.064 85.2404 181.028 85.2742 180.981C85.3079 180.934 85.3273 180.878 85.33 180.82L85.45 176.89C85.4538 176.818 85.4317 176.747 85.3876 176.69C85.3436 176.633 85.2805 176.594 85.21 176.58L80.43 175.7ZM141.8 176.23C123.88 178.9 105.35 179.03 87.33 176.78C87.01 176.74 86.84 176.88 86.82 177.2L86.45 182.08C86.4373 182.256 86.4619 182.433 86.5223 182.598C86.5826 182.764 86.6773 182.914 86.8 183.04C95.1267 191.673 104.403 198.977 114.63 204.95C114.853 205.08 115.107 205.146 115.364 205.14C115.622 205.135 115.873 205.059 116.09 204.92C125.837 198.793 134.233 192.08 141.28 184.78C141.84 184.21 142.5 183.56 142.49 182.69C142.463 180.723 142.467 178.777 142.5 176.85C142.507 176.37 142.273 176.163 141.8 176.23ZM188.86 182.13C184.85 189.2 180.25 195.71 174.77 201.45C174.23 202.017 174.317 202.147 175.03 201.84C177.003 201 178.99 200.11 180.99 199.17C182.39 198.51 183.49 197.517 184.29 196.19C187.497 190.857 189.657 185.46 190.77 180C190.803 179.827 190.74 179.707 190.58 179.64C190.433 179.58 190.277 179.603 190.11 179.71C189.863 179.877 189.697 180.1 189.61 180.38C189.43 180.98 189.18 181.563 188.86 182.13ZM65.83 203.13C66.4767 203.91 67.34 204.163 68.42 203.89C73.08 202.697 76.7867 200.343 79.54 196.83C79.5672 196.797 79.5866 196.758 79.5968 196.716C79.6071 196.674 79.6079 196.631 79.5993 196.589C79.5907 196.546 79.5729 196.507 79.547 196.472C79.5212 196.438 79.4881 196.41 79.45 196.39C71.0967 192.15 63.46 187.28 56.54 181.78C56.2733 181.567 55.9833 181.527 55.67 181.66L49.72 184.17C49.6686 184.192 49.6226 184.225 49.5855 184.266C49.5484 184.308 49.5211 184.357 49.5057 184.41C49.4903 184.463 49.4872 184.518 49.4966 184.572C49.506 184.626 49.5277 184.676 49.56 184.72C54.26 191.293 59.51 197.247 65.31 202.58C65.4967 202.753 65.67 202.937 65.83 203.13ZM57.33 203.21C57.3778 203.262 57.4409 203.297 57.51 203.31L63.13 204.3C63.1972 204.312 63.2666 204.304 63.3286 204.275C63.3907 204.246 63.4423 204.199 63.4763 204.14C63.5103 204.08 63.5251 204.012 63.5186 203.944C63.5121 203.876 63.4846 203.812 63.44 203.76L47.2 185.16C47.1571 185.109 47.0998 185.072 47.0355 185.054C46.9713 185.036 46.9031 185.038 46.84 185.06L42.04 186.7C41.9878 186.718 41.9409 186.749 41.9038 186.79C41.8667 186.831 41.8404 186.881 41.8275 186.934C41.8145 186.988 41.8153 187.044 41.8297 187.098C41.8441 187.151 41.8718 187.2 41.91 187.24L57.33 203.21ZM82.06 195.43C82.0301 195.479 82.0108 195.534 82.0032 195.592C81.9956 195.649 82 195.706 82.016 195.761C82.0321 195.816 82.0594 195.866 82.0963 195.909C82.1332 195.952 82.1787 195.986 82.23 196.01C92.2433 200.797 101.663 204.16 110.49 206.1C114.283 206.94 114.51 206.37 111.17 204.39C102.91 199.497 94.72 193.04 86.6 185.02C86.5391 184.961 86.4634 184.92 86.381 184.901C86.2987 184.882 86.2131 184.886 86.1335 184.911C86.0539 184.937 85.9834 184.984 85.9299 185.048C85.8763 185.111 85.8418 185.188 85.83 185.27C85.2233 188.883 83.9667 192.27 82.06 195.43ZM141.28 189.74C141.487 189.087 141.617 188.41 141.67 187.71C141.737 186.877 141.473 186.757 140.88 187.35C133.887 194.317 126.083 200.413 117.47 205.64C117.415 205.673 117.37 205.719 117.337 205.773C117.305 205.828 117.287 205.891 117.285 205.954C117.283 206.018 117.297 206.081 117.326 206.138C117.355 206.195 117.397 206.244 117.45 206.28C118.943 207.307 120.557 207.963 122.29 208.25C125.863 208.837 129.567 209.163 133.4 209.23C133.753 209.237 134.02 209.09 134.2 208.79C137.613 203.243 139.817 197.543 140.81 191.69C140.93 191.023 141.087 190.373 141.28 189.74ZM38.75 187.81C38.7188 187.743 38.6672 187.687 38.6025 187.651C38.5378 187.615 38.4634 187.601 38.39 187.61L33.11 188.15C33.0407 188.156 32.9747 188.183 32.9207 188.227C32.8666 188.27 32.8268 188.329 32.8064 188.396C32.786 188.463 32.7859 188.534 32.8062 188.6C32.8264 188.667 32.866 188.726 32.92 188.77L42.01 196.4C42.0713 196.451 42.1484 196.48 42.2283 196.481C42.3082 196.483 42.3862 196.457 42.4493 196.408C42.5124 196.359 42.5569 196.289 42.5752 196.212C42.5935 196.134 42.5846 196.052 42.55 195.98L38.75 187.81ZM53.36 202.04C53.8333 202.147 53.8867 202.043 53.52 201.73C50.04 198.75 46.61 195.233 43.23 191.18C41.4833 189.087 41.2267 189.257 42.46 191.69C43.69 194.13 45.14 197.49 47.08 199.11C48.7133 200.47 50.8067 201.447 53.36 202.04ZM68.82 205.93C73.5067 209.71 78.4033 212.977 83.51 215.73C83.9433 215.963 84.4033 216.047 84.89 215.98C93.7967 214.84 102.097 212.237 109.79 208.17C110.15 207.983 110.133 207.84 109.74 207.74C99.9 205.38 90.4533 201.933 81.4 197.4C81.2734 197.335 81.1281 197.317 80.9893 197.348C80.8506 197.379 80.727 197.457 80.64 197.57C77.68 201.423 73.7767 204.023 68.93 205.37C68.53 205.483 68.4933 205.67 68.82 205.93ZM186.319 198.396C186.297 198.366 186.242 198.36 186.156 198.38C186.069 198.4 185.953 198.444 185.815 198.511C185.676 198.577 185.518 198.665 185.349 198.768C185.179 198.871 185.002 198.988 184.828 199.112C184.475 199.362 184.155 199.626 183.936 199.846C183.717 200.066 183.618 200.224 183.661 200.284C183.683 200.314 183.738 200.319 183.824 200.3C183.911 200.28 184.027 200.235 184.165 200.169C184.304 200.103 184.462 200.015 184.631 199.912C184.801 199.809 184.978 199.692 185.152 199.568C185.505 199.318 185.825 199.054 186.044 198.834C186.263 198.614 186.362 198.456 186.319 198.396ZM46.2638 201.494C46.3048 201.442 46.2257 201.299 46.0439 201.096C45.8622 200.894 45.5926 200.648 45.2946 200.413C45.147 200.297 44.9969 200.187 44.8527 200.09C44.7086 199.992 44.5733 199.909 44.4546 199.846C44.3359 199.782 44.2361 199.738 44.1608 199.718C44.0856 199.697 44.0365 199.7 44.0162 199.726C43.9752 199.778 44.0543 199.921 44.2361 200.124C44.4178 200.326 44.6874 200.572 44.9854 200.806C45.133 200.923 45.2831 201.033 45.4273 201.13C45.5714 201.227 45.7067 201.31 45.8254 201.374C45.9441 201.438 46.0439 201.482 46.1192 201.502C46.1944 201.523 46.2435 201.52 46.2638 201.494ZM160.98 213.32C160.487 213.647 160.53 213.763 161.11 213.67C167.54 212.66 174.92 207.4 179.11 202.97C179.917 202.123 179.783 201.933 178.71 202.4C175.35 203.86 171.35 204.84 168.63 207.35C166.317 209.483 163.767 211.473 160.98 213.32ZM50.75 203.71C55.51 208.85 62.16 212.97 69.11 214.54C70.0567 214.76 70.1233 214.603 69.31 214.07C65.8167 211.81 62.46 209.323 59.24 206.61C56.85 204.6 53.89 204.35 51.05 203.27C50.3233 202.99 50.2233 203.137 50.75 203.71ZM75.04 215.74C75.0873 215.773 75.1424 215.794 75.2 215.8L79.33 216.2C79.4031 216.205 79.476 216.187 79.5377 216.147C79.5995 216.108 79.6468 216.049 79.6727 215.981C79.6985 215.912 79.7015 215.837 79.6812 215.767C79.6609 215.696 79.6184 215.634 79.56 215.59L65.89 205.98C65.8258 205.935 65.7481 205.914 65.67 205.92L61.85 206.12C61.7794 206.124 61.7119 206.151 61.6571 206.196C61.6022 206.24 61.5627 206.301 61.5439 206.369C61.5252 206.438 61.5283 206.51 61.5527 206.576C61.5771 206.643 61.6216 206.7 61.68 206.74L75.04 215.74ZM164.85 207.46C155.07 210.18 145.38 211.24 135.07 211.1C134.73 211.1 134.423 211.183 134.15 211.35C133.83 211.557 133.65 211.847 133.61 212.22C133.563 212.64 133.743 212.907 134.15 213.02C140.37 214.787 146.597 215.513 152.83 215.2C154.343 215.12 155.74 214.663 157.02 213.83C159.893 211.943 162.583 209.977 165.09 207.93C165.763 207.383 165.683 207.227 164.85 207.46ZM87.72 217.26C87.6873 217.266 87.6575 217.283 87.6347 217.307C87.6119 217.332 87.5973 217.363 87.5929 217.396C87.5885 217.429 87.5945 217.462 87.6101 217.492C87.6258 217.521 87.6502 217.545 87.68 217.56C94.06 220.52 100.79 222.617 107.87 223.85C109.21 224.083 110.44 224.103 111.56 223.91C118.707 222.65 124.897 219.393 130.13 214.14C130.174 214.099 130.205 214.046 130.222 213.989C130.239 213.931 130.241 213.87 130.227 213.81C130.213 213.751 130.184 213.696 130.142 213.65C130.101 213.605 130.048 213.57 129.99 213.55C127.79 212.803 125.57 211.927 123.33 210.92C120.24 209.53 116.87 209.33 113.54 208.57C113.053 208.457 112.59 208.52 112.15 208.76C104.57 212.94 96.4267 215.773 87.72 217.26ZM131.1 212.13C131.547 212.31 131.947 212.243 132.3 211.93C132.64 211.63 132.597 211.41 132.17 211.27C130.883 210.843 129.657 210.683 128.49 210.79C127.77 210.85 127.753 210.987 128.44 211.2C129.367 211.48 130.253 211.79 131.1 212.13ZM149.82 217.35C143.827 217.01 138.093 216.023 132.62 214.39C132.26 214.283 131.957 214.373 131.71 214.66C127.6 219.45 122.48 222.28 116.78 224.67C116.764 224.673 116.75 224.681 116.741 224.695C116.731 224.708 116.727 224.724 116.73 224.74C116.733 224.756 116.742 224.77 116.755 224.779C116.768 224.789 116.784 224.793 116.8 224.79C128.56 225.11 139.597 222.783 149.91 217.81C150.47 217.537 150.44 217.383 149.82 217.35ZM80.19 216.83L79.73 218.13C79.7155 218.168 79.7087 218.209 79.7099 218.249C79.7111 218.29 79.7204 218.33 79.7371 218.367C79.7538 218.404 79.7777 218.438 79.8074 218.466C79.837 218.494 79.8719 218.515 79.91 218.53L80.07 218.58C84.7629 220.27 89.2957 221.803 92.6727 222.844C96.0496 223.884 97.9945 224.347 98.08 224.13L98.16 223.91C98.2161 223.807 97.8094 223.538 96.9633 223.119C96.1172 222.7 94.8484 222.139 93.23 221.469C91.6117 220.799 89.6757 220.033 87.5338 219.214C85.3919 218.395 83.0864 217.541 80.75 216.7L80.59 216.65C80.5519 216.635 80.5114 216.629 80.4706 216.63C80.4299 216.631 80.3898 216.64 80.3527 216.657C80.3155 216.674 80.2821 216.698 80.2541 216.727C80.2262 216.757 80.2044 216.792 80.19 216.83Z" fill="black"/>
</svg>
